{
  "accessors": [
    {
      "name": "r.0093_1_0_positions",
      "componentType": 5126,
      "count": 896,
      "min": [
        -51.13761901855469,
        -51.371429443359375,
        0.000033855438232421875
      ],
      "max": [
        51.137630462646484,
        51.3714485168457,
        35.5329704284668
      ],
      "type": "VEC3",
      "bufferView": 0,
      "byteOffset": 0
    },
    {
      "name": "r.0093_1_0_normals",
      "componentType": 5126,
      "count": 896,
      "min": [
        -0.9997985363006592,
        -0.9968223571777344,
        -0.9999645352363586
      ],
      "max": [
        0.9759461283683777,
        0.987956166267395,
        0.9970094561576843
      ],
      "type": "VEC3",
      "bufferView": 1,
      "byteOffset": 0
    },
    {
      "name": "r.0093_1_0_texcoords",
      "componentType": 5126,
      "count": 896,
      "min": [
        0,
        0
      ],
      "max": [
        1,
        1
      ],
      "type": "VEC2",
      "bufferView": 2,
      "byteOffset": 0
    },
    {
      "name": "r.0093_1_0_indices",
      "componentType": 5123,
      "count": 5376,
      "min": [
        0
      ],
      "max": [
        895
      ],
      "type": "SCALAR",
      "bufferView": 3,
      "byteOffset": 0
    },
    {
      "name": "r.0096_1_0_positions",
      "componentType": 5126,
      "count": 8896,
      "min": [
        -39.099449157714844,
        -44.84788131713867,
        173.86410522460938
      ],
      "max": [
        50.38956069946289,
        44.62041091918945,
        251.03480529785156
      ],
      "type": "VEC3",
      "bufferView": 0,
      "byteOffset": 10752
    },
    {
      "name": "r.0096_1_0_normals",
      "componentType": 5126,
      "count": 8896,
      "min": [
        -0.999386727809906,
        -0.9993525743484497,
        -0.914294421672821
      ],
      "max": [
        0.999392569065094,
        0.999380350112915,
        0.9999999403953552
      ],
      "type": "VEC3",
      "bufferView": 1,
      "byteOffset": 10752
    },
    {
      "name": "r.0096_1_0_texcoords",
      "componentType": 5126,
      "count": 8896,
      "min": [
        0,
        0
      ],
      "max": [
        1,
        1
      ],
      "type": "VEC2",
      "bufferView": 2,
      "byteOffset": 7168
    },
    {
      "name": "r.0096_1_0_indices",
      "componentType": 5123,
      "count": 52992,
      "min": [
        0
      ],
      "max": [
        8895
      ],
      "type": "SCALAR",
      "bufferView": 3,
      "byteOffset": 10752
    },
    {
      "name": "s.0099_1_0_positions",
      "componentType": 5126,
      "count": 770,
      "min": [
        30.13517951965332,
        7.656035900115967,
        197.64019775390625
      ],
      "max": [
        35.27069854736328,
        16.351350784301758,
        205.17529296875
      ],
      "type": "VEC3",
      "bufferView": 0,
      "byteOffset": 117504
    },
    {
      "name": "s.0099_1_0_normals",
      "componentType": 5126,
      "count": 770,
      "min": [
        -0.9956124424934387,
        -0.9980668425559998,
        -0.9993855357170105
      ],
      "max": [
        0.9861962795257568,
        0.9995750188827515,
        0.9992284178733826
      ],
      "type": "VEC3",
      "bufferView": 1,
      "byteOffset": 117504
    },
    {
      "name": "s.0099_1_0_texcoords",
      "componentType": 5126,
      "count": 770,
      "min": [
        0,
        -0.0004440000047907233
      ],
      "max": [
        1,
        1.0004438161849976
      ],
      "type": "VEC2",
      "bufferView": 2,
      "byteOffset": 78336
    },
    {
      "name": "s.0099_1_0_indices",
      "componentType": 5123,
      "count": 4560,
      "min": [
        0
      ],
      "max": [
        769
      ],
      "type": "SCALAR",
      "bufferView": 3,
      "byteOffset": 116736
    },
    {
      "name": "s.0102Thicken_1_0_positions",
      "componentType": 5126,
      "count": 4096,
      "min": [
        23.538509368896484,
        14.782270431518555,
        193.4875030517578
      ],
      "max": [
        33.49169921875,
        35.98542022705078,
        215.56739807128906
      ],
      "type": "VEC3",
      "bufferView": 0,
      "byteOffset": 126744
    },
    {
      "name": "s.0102Thicken_1_0_normals",
      "componentType": 5126,
      "count": 4096,
      "min": [
        -0.9994338154792786,
        -0.9982048869132996,
        -0.9963897466659546
      ],
      "max": [
        0.9993581771850586,
        0.9983072876930237,
        0.9994535446166992
      ],
      "type": "VEC3",
      "bufferView": 1,
      "byteOffset": 126744
    },
    {
      "name": "s.0102Thicken_1_0_texcoords",
      "componentType": 5126,
      "count": 4096,
      "min": [
        0.04690380021929741,
        0.0851994976401329
      ],
      "max": [
        0.9905921220779419,
        0.9148004055023193
      ],
      "type": "VEC2",
      "bufferView": 2,
      "byteOffset": 84496
    },
    {
      "name": "s.0102Thicken_1_0_indices",
      "componentType": 5123,
      "count": 24576,
      "min": [
        0
      ],
      "max": [
        4095
      ],
      "type": "SCALAR",
      "bufferView": 3,
      "byteOffset": 125856
    },
    {
      "name": "s.0103Thicken_1_0_positions",
      "componentType": 5126,
      "count": 4096,
      "min": [
        33.233299255371094,
        -10.9137601852417,
        195.20790100097656
      ],
      "max": [
        43.612850189208984,
        10.042530059814453,
        217.3188018798828
      ],
      "type": "VEC3",
      "bufferView": 0,
      "byteOffset": 175896
    },
    {
      "name": "s.0103Thicken_1_0_normals",
      "componentType": 5126,
      "count": 4096,
      "min": [
        -0.9999277591705322,
        -0.9995800256729126,
        -0.9955517053604126
      ],
      "max": [
        0.9981950521469116,
        0.9997780919075012,
        0.9993094205856323
      ],
      "type": "VEC3",
      "bufferView": 1,
      "byteOffset": 175896
    },
    {
      "name": "s.0103Thicken_1_0_texcoords",
      "componentType": 5126,
      "count": 4096,
      "min": [
        0.046903789043426514,
        0.0851994976401329
      ],
      "max": [
        0.9905921220779419,
        0.9148004651069641
      ],
      "type": "VEC2",
      "bufferView": 2,
      "byteOffset": 117264
    },
    {
      "name": "s.0103Thicken_1_0_indices",
      "componentType": 5123,
      "count": 24576,
      "min": [
        0
      ],
      "max": [
        4095
      ],
      "type": "SCALAR",
      "bufferView": 3,
      "byteOffset": 175008
    },
    {
      "name": "s.0104_1_0_positions",
      "componentType": 5126,
      "count": 410,
      "min": [
        -19.845430374145508,
        13.76513957977295,
        199.14520263671875
      ],
      "max": [
        26.373180389404297,
        35.37525177001953,
        213.95770263671875
      ],
      "type": "VEC3",
      "bufferView": 0,
      "byteOffset": 225048
    },
    {
      "name": "s.0104_1_0_normals",
      "componentType": 5126,
      "count": 410,
      "min": [
        -0.9972337484359741,
        -0.9953087568283081,
        -0.9999980330467224
      ],
      "max": [
        0.9986920952796936,
        0.9967730641365051,
        0.9999722838401794
      ],
      "type": "VEC3",
      "bufferView": 1,
      "byteOffset": 225048
    },
    {
      "name": "s.0104_1_0_texcoords",
      "componentType": 5126,
      "count": 410,
      "min": [
        0,
        -0.010389000177383423
      ],
      "max": [
        1,
        1.010388970375061
      ],
      "type": "VEC2",
      "bufferView": 2,
      "byteOffset": 150032
    },
    {
      "name": "s.0104_1_0_indices",
      "componentType": 5123,
      "count": 2448,
      "min": [
        0
      ],
      "max": [
        409
      ],
      "type": "SCALAR",
      "bufferView": 3,
      "byteOffset": 224160
    },
    {
      "name": "s.0105_1_0_positions",
      "componentType": 5126,
      "count": 410,
      "min": [
        -2.8946149349212646,
        -32.39815902709961,
        198.68629455566406
      ],
      "max": [
        42.793739318847656,
        -9.456647872924805,
        213.38519287109375
      ],
      "type": "VEC3",
      "bufferView": 0,
      "byteOffset": 229968
    },
    {
      "name": "s.0105_1_0_normals",
      "componentType": 5126,
      "count": 410,
      "min": [
        -0.9958622455596924,
        -0.9881868958473206,
        -0.9848607182502747
      ],
      "max": [
        0.9953873753547668,
        0.9858144521713257,
        0.9854207634925842
      ],
      "type": "VEC3",
      "bufferView": 1,
      "byteOffset": 229968
    },
    {
      "name": "s.0105_1_0_texcoords",
      "componentType": 5126,
      "count": 410,
      "min": [
        0,
        -0.010389000177383423
      ],
      "max": [
        1,
        1.010388970375061
      ],
      "type": "VEC2",
      "bufferView": 2,
      "byteOffset": 153312
    },
    {
      "name": "s.0105_1_0_indices",
      "componentType": 5123,
      "count": 2448,
      "min": [
        0
      ],
      "max": [
        409
      ],
      "type": "SCALAR",
      "bufferView": 3,
      "byteOffset": 229056
    },
    {
      "name": "s.0111_1_0_positions",
      "componentType": 5126,
      "count": 662,
      "min": [
        -8.82247257232666,
        -8.578154563903809,
        18.56022071838379
      ],
      "max": [
        14.221150398254395,
        10.643150329589844,
        199.08349609375
      ],
      "type": "VEC3",
      "bufferView": 0,
      "byteOffset": 234888
    },
    {
      "name": "s.0111_1_0_normals",
      "componentType": 5126,
      "count": 662,
      "min": [
        -0.999354898929596,
        -0.9992373585700989,
        -0.9989385008811951
      ],
      "max": [
        0.9994516372680664,
        0.9987237453460693,
        0.9989383816719055
      ],
      "type": "VEC3",
      "bufferView": 1,
      "byteOffset": 234888
    },
    {
      "name": "s.0111_1_0_texcoords",
      "componentType": 5126,
      "count": 662,
      "min": [
        0,
        -0.013867000117897987
      ],
      "max": [
        1,
        1.0249286890029907
      ],
      "type": "VEC2",
      "bufferView": 2,
      "byteOffset": 156592
    },
    {
      "name": "s.0111_1_0_indices",
      "componentType": 5123,
      "count": 3960,
      "min": [
        0
      ],
      "max": [
        661
      ],
      "type": "SCALAR",
      "bufferView": 3,
      "byteOffset": 233952
    }
  ],
  "asset": {
    "generator": "obj2gltf",
    "version": "2.0"
  },
  "buffers": [
    {
      "name": "swag-lamp",
      "byteLength": 889424,
      "uri": "data:application/octet-stream;base64,"
    }
  ],
  "bufferViews": [
    {
      "name": "bufferView_0",
      "buffer": 0,
      "byteLength": 242832,
      "byteOffset": 0,
      "byteStride": 12,
      "target": 34962
    },
    {
      "name": "bufferView_1",
      "buffer": 0,
      "byteLength": 242832,
      "byteOffset": 242832,
      "byteStride": 12,
      "target": 34962
    },
    {
      "name": "bufferView_2",
      "buffer": 0,
      "byteLength": 161888,
      "byteOffset": 485664,
      "byteStride": 8,
      "target": 34962
    },
    {
      "name": "bufferView_3",
      "buffer": 0,
      "byteLength": 241872,
      "byteOffset": 647552,
      "target": 34963
    }
  ],
  "materials": [
    {
      "name": "ReflectiveC27D3A",
      "pbrMetallicRoughness": {
        "baseColorFactor": [
          0.7607843,
          0.4901961,
          0.227451,
          1
        ],
        "metallicFactor": 0,
        "roughnessFactor": 0.07499999999999996
      },
      "emissiveFactor": [
        0,
        0,
        0
      ],
      "alphaMode": "OPAQUE",
      "doubleSided": false
    },
    {
      "name": "CartoonFFFFFF",
      "pbrMetallicRoughness": {
        "baseColorFactor": [
          1,
          1,
          1,
          1
        ],
        "metallicFactor": 0,
        "roughnessFactor": 1
      },
      "emissiveFactor": [
        0,
        0,
        0
      ],
      "alphaMode": "OPAQUE",
      "doubleSided": false
    },
    {
      "name": "CartoonFF0A08",
      "pbrMetallicRoughness": {
        "baseColorFactor": [
          1,
          0.03921569,
          0.03137255,
          1
        ],
        "metallicFactor": 0,
        "roughnessFactor": 1
      },
      "emissiveFactor": [
        0,
        0,
        0
      ],
      "alphaMode": "OPAQUE",
      "doubleSided": false
    },
    {
      "name": "CartoonFF1100",
      "pbrMetallicRoughness": {
        "baseColorFactor": [
          1,
          0.06666667,
          0,
          1
        ],
        "metallicFactor": 0,
        "roughnessFactor": 1
      },
      "emissiveFactor": [
        0,
        0,
        0
      ],
      "alphaMode": "OPAQUE",
      "doubleSided": false
    }
  ],
  "meshes": [
    {
      "name": "r.0093_1",
      "primitives": [
        {
          "attributes": {
            "POSITION": 0,
            "NORMAL": 1,
            "TEXCOORD_0": 2
          },
          "indices": 3,
          "material": 0,
          "mode": 4
        }
      ]
    },
    {
      "name": "r.0096_1",
      "primitives": [
        {
          "attributes": {
            "POSITION": 4,
            "NORMAL": 5,
            "TEXCOORD_0": 6
          },
          "indices": 7,
          "material": 1,
          "mode": 4
        }
      ]
    },
    {
      "name": "s.0099_1",
      "primitives": [
        {
          "attributes": {
            "POSITION": 8,
            "NORMAL": 9,
            "TEXCOORD_0": 10
          },
          "indices": 11,
          "material": 2,
          "mode": 4
        }
      ]
    },
    {
      "name": "s.0102Thicken_1",
      "primitives": [
        {
          "attributes": {
            "POSITION": 12,
            "NORMAL": 13,
            "TEXCOORD_0": 14
          },
          "indices": 15,
          "material": 3,
          "mode": 4
        }
      ]
    },
    {
      "name": "s.0103Thicken_1",
      "primitives": [
        {
          "attributes": {
            "POSITION": 16,
            "NORMAL": 17,
            "TEXCOORD_0": 18
          },
          "indices": 19,
          "material": 3,
          "mode": 4
        }
      ]
    },
    {
      "name": "s.0104_1",
      "primitives": [
        {
          "attributes": {
            "POSITION": 20,
            "NORMAL": 21,
            "TEXCOORD_0": 22
          },
          "indices": 23,
          "material": 3,
          "mode": 4
        }
      ]
    },
    {
      "name": "s.0105_1",
      "primitives": [
        {
          "attributes": {
            "POSITION": 24,
            "NORMAL": 25,
            "TEXCOORD_0": 26
          },
          "indices": 27,
          "material": 3,
          "mode": 4
        }
      ]
    },
    {
      "name": "s.0111_1",
      "primitives": [
        {
          "attributes": {
            "POSITION": 28,
            "NORMAL": 29,
            "TEXCOORD_0": 30
          },
          "indices": 31,
          "material": 0,
          "mode": 4
        }
      ]
    }
  ],
  "nodes": [
    {
      "name": "r.0093",
      "mesh": 0
    },
    {
      "name": "r.0096",
      "mesh": 1
    },
    {
      "name": "s.0099",
      "mesh": 2
    },
    {
      "name": "s.0102Thicken",
      "mesh": 3
    },
    {
      "name": "s.0103Thicken",
      "mesh": 4
    },
    {
      "name": "s.0104",
      "mesh": 5
    },
    {
      "name": "s.0105",
      "mesh": 6
    },
    {
      "name": "s.0111",
      "mesh": 7
    }
  ],
  "scene": 0,
  "scenes": [
    {
      "nodes": [
        0,
        1,
        2,
        3,
        4,
        5,
        6,
        7
      ]
    }
  ]
}
